<svg xmlns="http://www.w3.org/2000/svg" viewBox="0 0 1920 800"><defs><style>.a{fill:#232323;}</style></defs><title>clipbg</title><path class="a" d="M1594.13,525.69c6.5-21.53,18.84-39.92,36.55-54.72l.45.45c9.64,6.28,22.2,7.4,35.88,5.16,46.2-7.4,104.51-52,104.51-52l84.77-84.77c6.5-6.5,12.11-4.26,12.11-4.26l7.4-7.4a29.5,29.5,0,0,0,42.39-2l55.62-63.47L1831.17,120l-63.47,55.62a29.25,29.25,0,0,0-1.35,42.83l-7.4,7.4s2.24,5.61-4.26,12.11l-84.77,84.77s-44.63,58.31-52,104.51c-1.35,8.52-1.57,16.6.22,24a136.87,136.87,0,0,0-46,67.73c-7.85,25.57-15.92,41.26-24.67,48-7.18,5.61-15.47,5.83-28.48,5.83V596.1c13.46,0,28.93,0,42.61-10.54C1574.62,575.25,1584.71,556.86,1594.13,525.69Zm236.82-388.42L1958.1,264.42,1946.44,272,1823.1,148.71Zm-18.17,18.17,127.16,127.16-12.33,8.07L1804.26,167.32Z"/></svg>