<?xml version="1.0" encoding="UTF-8" standalone="no"?>
<!DOCTYPE svg PUBLIC "-//W3C//DTD SVG 1.1//EN" "http://www.w3.org/Graphics/SVG/1.1/DTD/svg11.dtd">
<svg version="1.1" xmlns="http://www.w3.org/2000/svg" xmlns:xlink="http://www.w3.org/1999/xlink" preserveAspectRatio="xMidYMid meet" viewBox="3.6966666666666583 4.649999999999977 155.60666666666674 162.7" width="151.61" height="158.7"><defs><path d="M41.93 122.64C41.94 122.65 42.06 122.77 42.08 122.79C45.29 124.88 49.48 125.26 54.04 124.51C69.44 122.04 88.87 107.18 88.87 107.18C91.7 104.35 114.3 81.75 117.13 78.92C119.3 76.75 121.17 77.5 121.17 77.5C121.41 77.25 123.39 75.28 123.63 75.03C127.59 78.76 133.81 78.57 137.53 74.62C137.61 74.54 137.69 74.45 137.76 74.37C139 72.96 145.18 65.9 156.3 53.21L108.76 5.65C96.06 16.77 89.01 22.95 87.6 24.19C83.54 27.73 83.12 33.89 86.66 37.95C86.82 38.13 86.98 38.3 87.15 38.47C86.9 38.71 84.93 40.69 84.68 40.93C84.68 40.93 85.43 42.8 83.26 44.97C80.44 47.8 57.83 70.4 55.01 73.23C55.01 73.23 40.13 92.66 37.67 108.06C37.22 110.9 37.15 113.6 37.75 116.06C30.45 121.85 25.1 129.73 22.41 138.64C19.8 147.16 17.11 152.39 14.19 154.64C11.8 156.51 9.03 156.58 4.7 156.58C4.7 157.36 4.7 163.57 4.7 164.35C9.18 164.35 14.34 164.35 18.9 160.84C23.24 157.4 26.6 151.27 29.74 140.88C31.91 133.7 36.02 127.57 41.93 122.64ZM108.68 11.41L151.07 53.79L147.18 56.32L106.07 15.22L108.68 11.41ZM102.63 17.46L145.01 59.85L140.9 62.54L99.79 21.42L102.63 17.46Z" id="jEMcAmU5Y"></path></defs><g><g><use xlink:href="#jEMcAmU5Y" opacity="1" fill="#232323" fill-opacity="1"></use><g><use xlink:href="#jEMcAmU5Y" opacity="1" fill-opacity="0" stroke="#000000" stroke-width="1" stroke-opacity="0"></use></g></g></g></svg>