<svg xmlns="http://www.w3.org/2000/svg" viewBox="0 0 1920 800"><defs><style>.a{fill:#f4f4f4;}</style></defs><title>combbg</title><path class="a" d="M-26.26,213.85l60.18-60.18,13.74,13.74-69.89,69.89a11,11,0,0,0,0,15.87h0a11,11,0,0,0,15.87,0l69.89-69.89L77.28,197,7.39,266.92a11,11,0,0,0,0,15.87h0a11,11,0,0,0,15.87,0l69.89-69.89,13.74,13.74L37,296.54a11.22,11.22,0,1,0,15.87,15.87l69.89-69.89,13.74,13.74L66.62,326.15a11,11,0,0,0,0,15.87c4.5,4.26,11.61,4.5,15.87,0l69.89-69.89,13.74,13.74L96.23,355.77a11,11,0,0,0,0,15.87h0a11,11,0,0,0,15.87,0L182,301.75l13.74,13.74-69.89,69.89a11.22,11.22,0,1,0,15.87,15.87l69.89-69.89,13.74,13.74L155.46,415a11,11,0,0,0,0,15.87c4.5,4.26,11.61,4.5,15.87,0L241.22,361,255,374.72l-69.89,69.89a11,11,0,0,0,0,15.87h0a11,11,0,0,0,15.87,0l69.89-69.89,13.74,13.74-69.89,69.89a11.22,11.22,0,0,0,15.87,15.87l69.89-69.89,13.74,13.74L244.3,503.84a11.22,11.22,0,1,0,15.87,15.87l69.89-69.89,13.74,13.74-69.89,69.89a11,11,0,0,0,0,15.87h0a11,11,0,0,0,15.87,0l69.89-69.89,13.74,13.74L313,553.59a24.6,24.6,0,0,0,0,34.59l7.82,7.82L423.41,493.42a56.48,56.48,0,0,0,0-79.84L113.53,103.93a56.48,56.48,0,0,0-79.84,0L-68.9,206.51l7.34,7.34A25,25,0,0,0-26.26,213.85Z"/></svg>