<svg xmlns="http://www.w3.org/2000/svg" xmlns:xlink="http://www.w3.org/1999/xlink" preserveAspectRatio="xMidYMid meet" width="200" height="200" xmlns:v="https://vecta.io/nano"><defs><path d="M42.32 36.88l4.58 4.58-23.3 23.3c-1.46 1.4-1.5 3.73-.1 5.2l.1.1c1.4 1.46 3.73 1.5 5.2.1.03-.04.07-.07.1-.1l23.3-23.3 4.58 4.57-23.3 23.3c-1.46 1.4-1.5 3.72-.1 5.18l.1.1c1.4 1.46 3.72 1.5 5.18.1.04-.03.07-.07.1-.1l23.3-23.3 4.58 4.58-23.3 23.3c-1.46 1.46-1.46 3.83 0 5.3s3.83 1.46 5.3 0l23.3-23.3 4.58 4.58-23.3 23.3c-1.46 1.4-1.5 3.72-.1 5.18.04.04.07.08.1.1 1.5 1.42 3.87 1.5 5.3 0l23.3-23.3 4.58 4.58-23.3 23.3c-1.46 1.4-1.5 3.73-.1 5.2.04.03.07.07.1.1 1.4 1.46 3.72 1.5 5.18.1.04-.04.08-.07.1-.1l23.3-23.3 4.58 4.58-23.3 23.3c-1.46 1.46-1.46 3.83 0 5.3s3.83 1.46 5.3 0l23.3-23.3 4.58 4.58-23.3 23.3c-1.46 1.4-1.5 3.72-.1 5.18.03.04.07.07.1.1 1.5 1.42 3.87 1.5 5.3 0l23.3-23.3 4.6 4.57-23.3 23.3c-1.46 1.4-1.5 3.72-.1 5.18l.1.1c1.4 1.46 3.72 1.5 5.18.1.04-.03.07-.07.1-.1l23.3-23.3 4.58 4.58-23.3 23.3c-1.46 1.46-1.46 3.83 0 5.3s3.83 1.46 5.3 0l23.3-23.3 4.58 4.58-23.3 23.3c-1.46 1.46-1.46 3.83 0 5.3s3.83 1.46 5.3 0l23.3-23.3 4.58 4.58-23.3 23.3c-1.46 1.4-1.5 3.72-.1 5.18.04.04.07.08.1.1 1.4 1.46 3.72 1.5 5.18.1l.1-.1 23.3-23.3 4.58 4.58-20.13 20.14a8.2 8.2 0 0 0 0 11.53l2.6 2.6 34.2-34.2c7.34-7.35 7.34-19.27 0-26.62L68.86 20.3c-7.35-7.35-19.27-7.35-26.62 0L8.05 54.5l2.44 2.45c3.26 3.24 8.52 3.24 11.77 0l20.06-20.06z" id="A"/></defs><use xlink:href="#A" fill="#f4f4f4"/><use xlink:href="#A" fill-opacity="0" stroke="#000" stroke-opacity="0"/></svg>