<?xml version="1.0" encoding="UTF-8" standalone="no"?>
<!DOCTYPE svg PUBLIC "-//W3C//DTD SVG 1.1//EN" "http://www.w3.org/Graphics/SVG/1.1/DTD/svg11.dtd">
<svg width="100%" height="100%" viewBox="0 0 515 594" version="1.1" xmlns="http://www.w3.org/2000/svg" xmlns:xlink="http://www.w3.org/1999/xlink" xml:space="preserve" xmlns:serif="http://www.serif.com/" style="fill-rule:evenodd;clip-rule:evenodd;stroke-linejoin:round;stroke-miterlimit:2;">
    <g id="Artboard1" transform="matrix(5.49153,0,0,13.8519,-368.717,263.845)">
        <rect x="67.143" y="-19.048" width="93.651" height="42.857" style="fill:none;"/>
        <g transform="matrix(0.182099,0,0,0.0721925,82.4016,-21.8436)">
            <path d="M399.17,587.18C395.742,586.355 392.147,587.812 390.26,590.79C374.85,616.79 339.92,588.38 333.18,576.58C330.53,571.76 330.53,566.7 331.49,561.89C352.93,534.67 354.61,492.52 332.94,457.6C316.8,431.1 291,414.72 264.77,411.11C255.86,408.46 235.87,400.99 227.68,385.34C224.79,380.04 207.68,346.56 185.29,302.73C202.87,247.33 247,109.07 253,95.59C260,79.69 240.48,41.4 240.48,41.4C240.48,41.4 192.28,136 146.27,226.13C100.27,136 52.1,41.39 52.1,41.39C52.1,41.39 32.59,79.69 39.57,95.59C45.57,109.08 89.67,247.33 107.25,302.73C84.85,346.57 67.75,380.05 64.86,385.34C56.43,401 36.68,408.46 27.77,411.11C1.52,414.72 -24.01,431.11 -40.39,457.6C-67.13,501.2 -58.21,555.39 -20.16,578.75C17.89,602.11 70.4,585.75 97.14,542.14C115.2,512.51 116.89,478.07 104.37,451.82L104.85,451.58C92.08,426.77 101.24,405.82 101.24,405.82L132.31,345.12L146.31,339.12L160.31,345.12L191.38,405.82C191.38,405.82 200.77,426.82 187.77,451.58L188.25,451.82C175.48,478.31 177.17,512.76 195.48,542.14C218,579 259,596.33 294.16,586.69C298.984,587.932 303.729,589.461 308.37,591.27C313.196,593.225 317.734,595.825 321.86,599C379.86,642.84 399.18,613.45 404.96,597.55C405.207,596.759 405.333,595.936 405.333,595.107C405.333,591.379 402.784,588.099 399.17,587.18ZM74,528.17C56.18,557.07 21.25,568.17 -4.28,552.5C-29.57,536.84 -35.59,500.72 -17.77,471.81C0.05,442.9 34.98,431.81 60.51,447.48C85.82,463.13 91.84,499.26 74,528.17ZM141.2,311.4C141.177,311.4 141.153,311.4 141.13,311.4C127.821,311.4 116.87,300.449 116.87,287.14C116.87,287.117 116.87,287.093 116.87,287.07C116.91,285.613 117.071,284.161 117.35,282.73C118.245,278.131 120.414,273.876 123.61,270.45C128.192,265.607 134.573,262.86 141.24,262.86C154.554,262.86 165.51,273.816 165.51,287.13C165.51,300.444 154.554,311.4 141.24,311.4C141.223,311.4 141.207,311.4 141.19,311.4L141.2,311.4ZM218,528.17C200.18,499.27 206.2,462.9 231.49,447.48C256.78,431.82 291.7,442.9 309.77,471.81C327.59,500.71 321.57,537.08 296.28,552.5C271,568.15 235.87,557.31 218,528.17Z" style="fill:rgb(245,245,245);fill-rule:nonzero;"/>
        </g>
    </g>
</svg>
