<svg xmlns="http://www.w3.org/2000/svg" viewBox="0 0 1920 800"><defs><style>.a{fill:#f9f9f9;}</style></defs><title>scibg</title><path class="a" d="M399.17,587.18a8.26,8.26,0,0,0-8.91,3.61c-15.41,26-50.34-2.41-57.08-14.21-2.65-4.82-2.65-9.88-1.69-14.69,21.44-27.22,23.12-69.37,1.45-104.29C316.8,431.1,291,414.72,264.77,411.11c-8.91-2.65-28.9-10.12-37.09-25.77-2.89-5.3-20-38.78-42.39-82.61C202.87,247.33,247,109.07,253,95.59c7-15.9-12.52-54.19-12.52-54.19S192.28,136,146.27,226.13C100.27,136,52.1,41.39,52.1,41.39S32.59,79.69,39.57,95.59c6,13.49,50.1,151.74,67.68,207.14-22.4,43.84-39.5,77.32-42.39,82.61C56.43,401,36.68,408.46,27.77,411.11c-26.25,3.61-51.78,20-68.16,46.49-26.74,43.6-17.82,97.79,20.23,121.15s90.56,7,117.3-36.61c18.06-29.63,19.75-64.07,7.23-90.32l.48-.24c-12.77-24.81-3.61-45.76-3.61-45.76l31.07-60.7,14-6,14,6,31.07,60.7s9.39,21-3.61,45.76l.48.24c-12.77,26.49-11.08,60.94,7.23,90.32C218,579,259,596.33,294.16,586.69a124.8,124.8,0,0,1,14.21,4.58A57.55,57.55,0,0,1,321.86,599c58,43.84,77.32,14.45,83.1-1.45A8.18,8.18,0,0,0,399.17,587.18ZM74,528.17c-17.82,28.9-52.75,40-78.28,24.33-25.29-15.66-31.31-51.78-13.49-80.69s52.75-40,78.28-24.33C85.82,463.13,91.84,499.26,74,528.17Zm67.2-216.77a24.26,24.26,0,0,1-24.33-24.33,26.53,26.53,0,0,1,.48-4.34,25,25,0,0,1,6.26-12.28,24.27,24.27,0,1,1,17.58,40.95ZM218,528.17c-17.82-28.9-11.8-65.27,13.49-80.69,25.29-15.66,60.21-4.58,78.28,24.33,17.82,28.9,11.8,65.27-13.49,80.69C271,568.15,235.87,557.31,218,528.17Z"/></svg>